# xmcd
#
# Track frame offsets:
#	150
#	23910
#	56272
#	72585
#	87377
#	119667
#	134305
#	174462
#	190915
#	217577
#	232635
#	264077
#	274137
#
# Disc length: 3846 seconds
#
# Revision: 5
# Processed by: cddbd v1.5.2PL0 Copyright (c) Steve Scherf et al.
# Submitted via: EasyCDDAExtractor 11.5.0.1
#
DISCID=ae0f040d
DTITLE=Various Artist - Am I Black Enough For You
DYEAR=1995
DGENRE=R&B
TTITLE0=Billy Paul - Am I Black Enough For You
TTITLE1=Sly and The Family Stone - Thank You For Talkin' To Me Africa
TTITLE2=The Isley Brothers - Freedom
TTITLE3=The O'Jays - The Big Gangster
TTITLE4=MFSB - Freddie's Dead
TTITLE5=The Isley Brothers - Brother Brother
TTITLE6=The O'Jays - Don't Call Me Brother
TTITLE7=Harold Melvin And The Blue Notes - Ebony Woman
TTITLE8=Bunny Sigler - Keep Smilin'
TTITLE9=Harold Melvin And The Blue Notes - Where Are All My Friends
TTITLE10=The Intruders - Save The Children
TTITLE11=The Isley Brothers - Go For Your Guns
TTITLE12=The Jacksons - Man Of War
EXTD=Pride, power and politics, promises the sleeve blurb, attempting to root 
EXTD=this 12-track assemblage in the insurrectionary Afro-American milieu of t
EXTD=he '70s. Unfortunately, though a suitably comin'-atcha aura surrounds Bil
EXTD=ly Paul's chattering title\ntrack and The Isley Brothers' Freedom, we soo
EXTD=n skeet off (thanks, one would assume, to the contractual limitations set
EXTD=\nby the honky establishment) into all kinds of tangential pastures: soul
EXTD=ed-up schmaltz courtesy of Harold Melvin and The\nBluenotes, a couple of in
EXTD=strumentals, and The Jacksons' Man Of War, which packs as much political 
EXTD=punch as We Are\nThe World. More baffling still is the inclusion of Sly &
EXTD=The Family Stone's Thank You For Talkin' To Me Africa, a soporific re-wr
EXTD=ite of Thank You (Falettinme Be Mice Elf Again) that palls beside the mor
EXTD=e energised aspects of his oeuvre.
EXTT0=
EXTT1=
EXTT2=
EXTT3=
EXTT4=
EXTT5=
EXTT6=
EXTT7=
EXTT8=
EXTT9=
EXTT10=
EXTT11=
EXTT12=
PLAYORDER=
